<svg width="16" height="19" viewBox="0 0 16 19" fill="none" xmlns="http://www.w3.org/2000/svg">
<g clip-path="url(#clip0_7_174)">
<path d="M4.82161 15.1111C4.53596 14.8597 4.17415 14.974 3.77425 15.4386C3.222 16.0708 3.20296 16.3146 3.69808 16.3298C4.14241 16.3451 5.07551 15.332 4.82161 15.1111Z" fill="white"/>
<path d="M4.78979 13.8238C4.78979 13.6257 4.19946 13.4201 3.96459 13.5419C3.57104 13.74 1.35572 15.8271 1.19703 15.9032C0.809821 16.0861 1.4065 16.4593 1.85083 16.3146C2.25708 16.1775 4.78979 14.037 4.78979 13.8238Z" fill="white"/>
<path d="M2.96172 6.04669C3.4378 6.0543 3.56475 5.85626 3.26641 5.55919C2.68878 4.97267 2.23809 4.77462 1.88263 4.95743C1.46369 5.16309 2.32061 6.03145 2.96172 6.04669Z" fill="white"/>
<path d="M10.3821 6.85412C10.7249 6.86174 11.366 6.38186 11.3279 6.14573C11.2581 5.71916 10.5472 5.71916 10.1663 6.14573C9.75373 6.60276 9.82355 6.8465 10.3821 6.85412Z" fill="white"/>
<path d="M4.37093 5.82582C4.993 5.96294 4.94857 5.59731 4.1805 4.28716C2.76498 1.87252 2.28891 1.26315 1.95249 1.43072C1.5018 1.64401 3.72348 5.67348 4.37093 5.82582Z" fill="white"/>
<path d="M14.0256 4.67559C13.7146 4.83555 11.3977 6.67891 10.8201 7.21973C10.6931 7.3416 11.1311 7.55488 11.4548 7.52441C11.7786 7.49394 11.8992 7.41777 13.2004 6.38945C13.9685 5.78008 14.6794 5.22403 14.7747 5.15547C15.2317 4.8127 14.5715 4.39376 14.0256 4.67559Z" fill="white"/>
<path d="M11.4993 14.4941C11.1565 14.1133 10.6804 13.9 10.5471 14.0676C10.4646 14.1666 10.6424 14.4104 10.9661 14.6312C11.4866 14.9893 11.8611 14.8902 11.4993 14.4941Z" fill="white"/>
<path d="M10.617 10.3733C10.9597 10.16 10.9534 10.099 10.5662 9.64202C9.37919 8.24808 8.38896 5.03364 8.16679 1.88013C8.08427 0.745178 7.20195 -0.328842 6.73222 2.37525C6.13554 5.78774 4.72637 9.26116 3.79327 9.61917C3.16486 9.86292 3.23468 10.3733 3.89483 10.3733C4.87237 10.3733 5.46905 11.4321 5.8499 13.8695C6.09746 15.4539 6.5164 17.9066 6.55449 18.0361C6.6497 18.3408 7.51933 18.8359 7.74785 16.8098C8.06523 13.9457 9.30936 11.1731 10.617 10.3733ZM9.51884 10.0229C8.47148 10.9141 7.43681 12.6432 7.17021 13.9609C7.10673 14.2656 7.03691 14.2199 6.98613 13.8467C6.73857 11.9424 6.21172 10.7998 5.32305 10.1981L4.98027 9.96194C5.89434 8.79651 6.30693 8.37757 7.36698 4.80512C7.41142 4.65278 7.41777 4.67563 7.64628 5.59731C8.07157 7.34926 8.60477 8.59847 9.29032 9.45921C9.63309 9.901 9.63944 9.92385 9.51884 10.0229Z" fill="white"/>
<path d="M9.40462 14.6313C9.22054 14.7608 9.27132 14.8827 9.81087 15.7053C10.7567 17.145 11.2581 17.5715 11.5692 17.1983C11.7152 17.0231 11.639 16.8631 10.9471 15.8424C10.0902 14.578 9.80452 14.3571 9.40462 14.6313Z" fill="white"/>
</g>
<defs>
<clipPath id="clip0_7_174">
<rect width="15" height="18" fill="white" transform="translate(0.5 0.5)"/>
</clipPath>
</defs>
</svg>
